{"asset":{"version":"2.0","generator":"Unity 2021.3.12f1 glTFast 6.1.0"},"nodes":[{"name":"Solid1 (16)","mesh":0,"translation":[0.04705572,0.0338307023,0.119303226],"rotation":[0.5264937,0.5161124,-0.47202158,0.483350873],"scale":[0.45,0.449999958,0.449999958]},{"name":"Solid1 (20)","mesh":1,"translation":[0.04635191,0.0610139072,0.151691079],"rotation":[0.706056952,0.706727266,0.03851762,-0.0231658481],"scale":[0.450000077,0.4500001,0.4500001]},{"name":"Solid1 (13)","mesh":2,"translation":[-0.051,0.019,-0.155],"rotation":[-0.483350873,-0.47202158,0.5161124,-0.5264937],"scale":[0.45,0.449999958,0.449999928]},{"name":"Solid1 (3)","mesh":3,"translation":[0.0319159031,-0.14529559,-0.199546814],"rotation":[0.7070651,-0.7070651,0.007683199,-0.007683199],"scale":[0.45,0.45,0.45]},{"name":"Solid1 (11)","mesh":1,"translation":[-0.03616333,-0.00675392151,0.179094672],"rotation":[0.494537652,0.50540334,0.50540334,-0.494537652],"scale":[0.449999958,0.449999958,0.45]},{"name":"Solid1 (5)","mesh":1,"translation":[0.0325658321,-0.0120378733,-0.229442954],"rotation":[0.50540334,-0.494537652,-0.494537652,-0.50540334],"scale":[0.449999958,0.449999958,0.45]},{"name":"Solid1 (17)","mesh":2,"translation":[0.047388792,0.0351718068,0.103978276],"rotation":[-0.5161124,0.5264937,-0.483350873,-0.47202158],"scale":[0.45,0.449999958,0.449999958]},{"name":"Solid4 (1)","mesh":4,"translation":[1.599721,-0.682551146,-0.309794545],"rotation":[0,-0.999941,0,-0.0108656837],"scale":[0.449999958,0.45,0.449999958]},{"name":"Solid1 (19)","mesh":5,"translation":[-0.0007483959,0.211307079,-0.0251508951],"rotation":[0,0.39269945,0,-0.9196669],"scale":[0.45,0.45,0.45]},{"name":"Solid1 (18)","mesh":1,"translation":[0.04576111,0.0286181867,0.178867936],"rotation":[0.47202158,0.483350873,0.5264937,-0.5161124],"scale":[0.45,0.449999958,0.449999928]},{"name":"Solid4 (3)","mesh":4,"translation":[1.88997459,-0.682551146,-0.30348587],"rotation":[0,-0.999941,0,-0.0108656837],"scale":[0.449999958,0.45,0.449999958]},{"name":"Solid1 (1)","mesh":6,"translation":[0.0319159031,-0.0419410765,-0.199546814],"rotation":[0.7070651,-0.7070651,0.007683199,-0.007683199],"scale":[0.45,0.45,0.45]},{"name":"Solid1 (15)","mesh":1,"translation":[-0.0499629974,0.044842124,-0.202712774],"rotation":[0.03851762,-0.0231658481,-0.706056952,-0.706727266],"scale":[0.450000077,0.4500001,0.45]},{"name":"Solid1 (14)","mesh":1,"translation":[-0.0493724346,0.0124464035,-0.229889512],"rotation":[0.5264937,-0.5161124,-0.47202158,-0.483350873],"scale":[0.45,0.449999958,0.449999958]},{"name":"Solid1 (4)","mesh":7,"translation":[0.0312662125,-0.0120378733,-0.1696508],"rotation":[-0.494537652,0.50540334,-0.50540334,-0.494537652],"scale":[0.449999958,0.449999958,0.45]},{"name":"Solid1 (8)","mesh":8,"translation":[-0.03632927,-0.00450408459,0.103879809],"rotation":[0.494537652,0.50540334,0.50540334,-0.494537652],"scale":[0.449999958,0.449999958,0.45]},{"name":"Solid4","mesh":9,"translation":[1.599721,-0.682551146,-0.309794545],"rotation":[0,-0.999941,0,-0.0108656837],"scale":[0.449999958,0.45,0.449999958]},{"name":"Solid1 (2)","mesh":8,"translation":[0.02913189,-0.009788036,-0.154306531],"rotation":[0.50540334,-0.494537652,-0.494537652,-0.50540334],"scale":[0.449999958,0.449999958,0.45]},{"name":"Solid1 (12)","mesh":0,"translation":[-0.0506670475,0.01765889,-0.1703248],"rotation":[-0.47202158,0.483350873,-0.5264937,-0.5161124],"scale":[0.45,0.449999958,0.449999928]},{"name":"Solid1","mesh":10,"translation":[0.0319159031,0.0160901248,-0.199546814],"rotation":[-0.494537652,-0.494537652,-0.50540334,-0.50540334],"scale":[0.45,0.449999958,0.449999958]},{"name":"Solid1 (6)","mesh":10,"translation":[-0.0355134,0.0213740766,0.149198532],"rotation":[0.50540334,0.50540334,-0.494537652,-0.494537652],"scale":[0.45,0.449999958,0.449999958]},{"name":"Solid1 (10)","mesh":7,"translation":[-0.03486371,-0.00675392151,0.119302392],"rotation":[0.50540334,0.494537652,-0.494537652,0.50540334],"scale":[0.449999958,0.449999958,0.45]},{"name":"Solid1 (9)","mesh":3,"translation":[-0.0355134,-0.140011877,0.149198532],"rotation":[-0.007683199,0.007683199,0.7070651,-0.7070651],"scale":[0.45,0.45,0.450000018]},{"name":"Solid1 (7)","mesh":6,"translation":[-0.0355134,-0.0366571248,0.149198532],"rotation":[-0.007683199,0.007683199,0.7070651,-0.7070651],"scale":[0.45,0.45,0.450000018]},{"name":"Solid4 (2)","mesh":13,"translation":[1.88997459,-0.682551146,-0.30348587],"rotation":[0,-0.999941,0,-0.0108656837],"scale":[0.449999958,0.45,0.449999958]},{"name":"Solid1_44 (1)","mesh":11,"translation":[-0.0567116737,-0.107904971,0.148582935],"rotation":[-0.499999881,-0.4999999,0.5000001,0.5000001],"scale":[0.450230062,0.450230062,0.450230062]},{"name":"Solid1_44.001 (1)","mesh":12,"translation":[-0.05672145,-0.106904596,0.14903307],"rotation":[0.706676,-0.0246776938,-0.706676,0.0246778615],"scale":[0.45023,0.45023,0.45023]},{"name":"Solid1_44 (2)","mesh":11,"translation":[0.0492853075,-0.101547241,-0.199720621],"rotation":[-0.5,0.5,-0.5,0.5],"scale":[0.450230062,0.450230062,0.450230062]},{"name":"Solid1_44.001 (2)","mesh":12,"translation":[0.0491853058,-0.105747253,-0.207120657],"rotation":[-0.706676066,0.0246777348,-0.706676066,0.0246777348],"scale":[0.45023,0.45023,0.45023]},{"name":"Assembly","children":[0,1,2,3,4,5,6,7,8,9,10,11,12,13,14,15,16,17,18,19,20,21,22,23,24,25,26,27,28],"translation":[3.13924074,-0.271767616,2.56532574]}],"buffers":[{"uri":"Assembly.bin","byteLength":796716}],"bufferViews":[{"buffer":0,"byteLength":2316},{"buffer":0,"byteLength":3804,"byteOffset":2316},{"buffer":0,"byteLength":6756,"byteOffset":6120},{"buffer":0,"byteLength":1212,"byteOffset":12876},{"buffer":0,"byteLength":6180,"byteOffset":14088},{"buffer":0,"byteLength":34488,"byteOffset":20268},{"buffer":0,"byteLength":1440,"byteOffset":54756},{"buffer":0,"byteLength":2316,"byteOffset":56196},{"buffer":0,"byteLength":9312,"byteOffset":58512},{"buffer":0,"byteLength":5880,"byteOffset":67824},{"buffer":0,"byteLength":2196,"byteOffset":73704},{"buffer":0,"byteLength":4158,"byteOffset":75900},{"buffer":0,"byteLength":306,"byteOffset":80058},{"buffer":0,"byteLength":21936,"byteOffset":80364,"byteStride":48},{"buffer":0,"byteLength":37392,"byteOffset":102300,"byteStride":48},{"buffer":0,"byteLength":62400,"byteOffset":139692,"byteStride":48},{"buffer":0,"byteLength":10608,"byteOffset":202092,"byteStride":48},{"buffer":0,"byteLength":35232,"byteOffset":212700,"byteStride":48},{"buffer":0,"byteLength":330960,"byteOffset":247932,"byteStride":48},{"buffer":0,"byteLength":11904,"byteOffset":578892,"byteStride":48},{"buffer":0,"byteLength":21936,"byteOffset":590796,"byteStride":48},{"buffer":0,"byteLength":87792,"byteOffset":612732,"byteStride":48},{"buffer":0,"byteLength":33888,"byteOffset":700524,"byteStride":48},{"buffer":0,"byteLength":19392,"byteOffset":734412,"byteStride":48},{"buffer":0,"byteLength":39504,"byteOffset":753804,"byteStride":48},{"buffer":0,"byteLength":3408,"byteOffset":793308,"byteStride":48}],"accessors":[{"bufferView":13,"componentType":5126,"count":457,"type":"VEC3","max":[0.0909675658,0.0282257516,0.03259229],"min":[0,-0.0282257516,-0.03259229]},{"bufferView":13,"componentType":5126,"count":457,"type":"VEC3","byteOffset":12},{"bufferView":13,"componentType":5126,"count":457,"type":"VEC4","byteOffset":24},{"bufferView":13,"componentType":5126,"count":457,"type":"VEC2","byteOffset":40},{"bufferView":0,"componentType":5123,"count":1158,"type":"SCALAR"},{"bufferView":14,"componentType":5126,"count":779,"type":"VEC3","max":[0.124515884,0.032258,0.0372483321],"min":[0,-0.032258,-0.0372483321]},{"bufferView":14,"componentType":5126,"count":779,"type":"VEC3","byteOffset":12},{"bufferView":14,"componentType":5126,"count":779,"type":"VEC4","byteOffset":24},{"bufferView":14,"componentType":5126,"count":779,"type":"VEC2","byteOffset":40},{"bufferView":1,"componentType":5123,"count":1902,"type":"SCALAR"},{"bufferView":15,"componentType":5126,"count":1300,"type":"VEC3","max":[0.201289922,0.0387096,0.0387095958],"min":[0,-0.0387096,-0.100644961]},{"bufferView":15,"componentType":5126,"count":1300,"type":"VEC3","byteOffset":12},{"bufferView":15,"componentType":5126,"count":1300,"type":"VEC4","byteOffset":24},{"bufferView":15,"componentType":5126,"count":1300,"type":"VEC2","byteOffset":40},{"bufferView":2,"componentType":5123,"count":3378,"type":"SCALAR"},{"bufferView":16,"componentType":5126,"count":221,"type":"VEC3","max":[0.0490321629,0.0270952955,0.0270912349],"min":[0,-0.0270967185,-0.0270967185]},{"bufferView":16,"componentType":5126,"count":221,"type":"VEC3","byteOffset":12},{"bufferView":16,"componentType":5126,"count":221,"type":"VEC4","byteOffset":24},{"bufferView":16,"componentType":5126,"count":221,"type":"VEC2","byteOffset":40},{"bufferView":3,"componentType":5123,"count":606,"type":"SCALAR"},{"bufferView":17,"componentType":5126,"count":734,"type":"VEC3","max":[4.14677954,1.55262148,0.0293446332],"min":[3.64383364,1.47243369,-0.180736616]},{"bufferView":17,"componentType":5126,"count":734,"type":"VEC3","byteOffset":12},{"bufferView":17,"componentType":5126,"count":734,"type":"VEC4","byteOffset":24},{"bufferView":17,"componentType":5126,"count":734,"type":"VEC2","byteOffset":40},{"bufferView":4,"componentType":5123,"count":3090,"type":"SCALAR"},{"bufferView":18,"componentType":5126,"count":6895,"type":"VEC3","max":[0.290322,0.409095943,0.290322],"min":[-0.290322,-0.8331596,-0.290322]},{"bufferView":18,"componentType":5126,"count":6895,"type":"VEC3","byteOffset":12},{"bufferView":18,"componentType":5126,"count":6895,"type":"VEC4","byteOffset":24},{"bufferView":18,"componentType":5126,"count":6895,"type":"VEC2","byteOffset":40},{"bufferView":5,"componentType":5123,"count":4893,"type":"SCALAR"},{"bufferView":5,"componentType":5123,"count":12351,"type":"SCALAR","byteOffset":9786},{"bufferView":19,"componentType":5126,"count":248,"type":"VEC3","max":[0.0967740044,0.02708343,0.0270124655],"min":[0,-0.0270967223,-0.02709672]},{"bufferView":19,"componentType":5126,"count":248,"type":"VEC3","byteOffset":12},{"bufferView":19,"componentType":5126,"count":248,"type":"VEC4","byteOffset":24},{"bufferView":19,"componentType":5126,"count":248,"type":"VEC2","byteOffset":40},{"bufferView":6,"componentType":5123,"count":720,"type":"SCALAR"},{"bufferView":20,"componentType":5126,"count":457,"type":"VEC3","max":[0.0909675658,0.0282257516,0.03259229],"min":[0,-0.0282257516,-0.03259229]},{"bufferView":20,"componentType":5126,"count":457,"type":"VEC3","byteOffset":12},{"bufferView":20,"componentType":5126,"count":457,"type":"VEC4","byteOffset":24},{"bufferView":20,"componentType":5126,"count":457,"type":"VEC2","byteOffset":40},{"bufferView":7,"componentType":5123,"count":1158,"type":"SCALAR"},{"bufferView":21,"componentType":5126,"count":1829,"type":"VEC3","max":[0.201289922,0.0341934822,0.100644961],"min":[0,-0.0341934822,-0.100644961]},{"bufferView":21,"componentType":5126,"count":1829,"type":"VEC3","byteOffset":12},{"bufferView":21,"componentType":5126,"count":1829,"type":"VEC4","byteOffset":24},{"bufferView":21,"componentType":5126,"count":1829,"type":"VEC2","byteOffset":40},{"bufferView":8,"componentType":5123,"count":4656,"type":"SCALAR"},{"bufferView":22,"componentType":5126,"count":706,"type":"VEC3","max":[4.098095,1.58826947,-1.2351892],"min":[3.59472275,1.48663163,-1.44720721]},{"bufferView":22,"componentType":5126,"count":706,"type":"VEC3","byteOffset":12},{"bufferView":22,"componentType":5126,"count":706,"type":"VEC4","byteOffset":24},{"bufferView":22,"componentType":5126,"count":706,"type":"VEC2","byteOffset":40},{"bufferView":9,"componentType":5123,"count":2940,"type":"SCALAR"},{"bufferView":23,"componentType":5126,"count":404,"type":"VEC3","max":[0.145161,0.0282257516,0.03259229],"min":[-0.129031986,-0.0282257516,-0.03259229]},{"bufferView":23,"componentType":5126,"count":404,"type":"VEC3","byteOffset":12},{"bufferView":23,"componentType":5126,"count":404,"type":"VEC4","byteOffset":24},{"bufferView":23,"componentType":5126,"count":404,"type":"VEC2","byteOffset":40},{"bufferView":10,"componentType":5123,"count":1098,"type":"SCALAR"},{"bufferView":24,"componentType":5126,"count":823,"type":"VEC3","max":[0.101495706,0.0564515,0.07766126],"min":[-0.09979422,-0.0564515,-0.08814485]},{"bufferView":24,"componentType":5126,"count":823,"type":"VEC3","byteOffset":12},{"bufferView":24,"componentType":5126,"count":823,"type":"VEC4","byteOffset":24},{"bufferView":24,"componentType":5126,"count":823,"type":"VEC2","byteOffset":40},{"bufferView":11,"componentType":5123,"count":2079,"type":"SCALAR"},{"bufferView":25,"componentType":5126,"count":71,"type":"VEC3","max":[0.1014957,0.0483870022,0.117016032],"min":[-0.192697272,-0.0483870022,0.07766126]},{"bufferView":25,"componentType":5126,"count":71,"type":"VEC3","byteOffset":12},{"bufferView":25,"componentType":5126,"count":71,"type":"VEC4","byteOffset":24},{"bufferView":25,"componentType":5126,"count":71,"type":"VEC2","byteOffset":40},{"bufferView":12,"componentType":5123,"count":153,"type":"SCALAR"}],"materials":[{"name":"Standard_43","pbrMetallicRoughness":{"baseColorFactor":[0.741777539,0.741777539,0.790730655,1],"metallicFactor":0,"roughnessFactor":0.9720492}},{"name":"Standard_63","pbrMetallicRoughness":{"baseColorFactor":[0.8782204,0.8740317,0.8698165,1],"metallicFactor":0,"roughnessFactor":0.932143569}},{"name":"SolutionFlow","pbrMetallicRoughness":{"metallicFactor":0}},{"name":"Standard_9","pbrMetallicRoughness":{"baseColorFactor":[0.880825,0.880825,0.880825,1],"metallicFactor":0,"roughnessFactor":0.9657673}},{"name":"Standard_56","pbrMetallicRoughness":{"baseColorFactor":[0,0.818290234,1,1],"metallicFactor":0,"roughnessFactor":0.9657673}},{"name":"Standard_59","pbrMetallicRoughness":{"baseColorFactor":[0.9776915,0.9776915,1,1],"metallicFactor":0,"roughnessFactor":0.936078668}},{"name":"SolutionFlow","pbrMetallicRoughness":{"metallicFactor":0}},{"name":"SolutionFlow","pbrMetallicRoughness":{"metallicFactor":0}},{"name":"Metal-Medium","pbrMetallicRoughness":{"baseColorFactor":[0.7169812,0.7169812,0.7169812,1],"metallicFactor":0,"roughnessFactor":0.5}},{"name":"Valve","pbrMetallicRoughness":{"baseColorFactor":[0.4705882,0.474509776,0.4705882,1],"metallicFactor":0,"roughnessFactor":0.5}}],"meshes":[{"name":"Solid1","primitives":[{"attributes":{"POSITION":0,"NORMAL":1,"TANGENT":2,"TEXCOORD_0":3},"indices":4,"material":0}]},{"name":"Solid1","primitives":[{"attributes":{"POSITION":5,"NORMAL":6,"TANGENT":7,"TEXCOORD_0":8},"indices":9,"material":0}]},{"name":"Solid1","primitives":[{"attributes":{"POSITION":10,"NORMAL":11,"TANGENT":12,"TEXCOORD_0":13},"indices":14,"material":1}]},{"name":"Solid1","primitives":[{"attributes":{"POSITION":15,"NORMAL":16,"TANGENT":17,"TEXCOORD_0":18},"indices":19,"material":1}]},{"name":"Solid4","primitives":[{"attributes":{"POSITION":20,"NORMAL":21,"TANGENT":22,"TEXCOORD_0":23},"indices":24,"material":2}]},{"name":"Solid1","primitives":[{"attributes":{"POSITION":25,"NORMAL":26,"TANGENT":27,"TEXCOORD_0":28},"indices":29,"material":3},{"attributes":{"POSITION":25,"NORMAL":26,"TANGENT":27,"TEXCOORD_0":28},"indices":30,"material":4}]},{"name":"Solid1","primitives":[{"attributes":{"POSITION":31,"NORMAL":32,"TANGENT":33,"TEXCOORD_0":34},"indices":35,"material":5}]},{"name":"Solid1","primitives":[{"attributes":{"POSITION":36,"NORMAL":37,"TANGENT":38,"TEXCOORD_0":39},"indices":40,"material":0}]},{"name":"Solid1","primitives":[{"attributes":{"POSITION":41,"NORMAL":42,"TANGENT":43,"TEXCOORD_0":44},"indices":45,"material":1}]},{"name":"Solid4","primitives":[{"attributes":{"POSITION":46,"NORMAL":47,"TANGENT":48,"TEXCOORD_0":49},"indices":50,"material":6}]},{"name":"Solid1","primitives":[{"attributes":{"POSITION":51,"NORMAL":52,"TANGENT":53,"TEXCOORD_0":54},"indices":55,"material":3}]},{"name":"Solid1_44","primitives":[{"attributes":{"POSITION":56,"NORMAL":57,"TANGENT":58,"TEXCOORD_0":59},"indices":60,"material":8}]},{"name":"Solid1_44.001","primitives":[{"attributes":{"POSITION":61,"NORMAL":62,"TANGENT":63,"TEXCOORD_0":64},"indices":65,"material":9}]},{"name":"Solid4","primitives":[{"attributes":{"POSITION":46,"NORMAL":47,"TANGENT":48,"TEXCOORD_0":49},"indices":50,"material":7}]}],"scene":0,"scenes":[{"name":"Assembly","nodes":[29]}]}